<svg width="92" height="92" viewBox="0 0 92 92" fill="none" xmlns="http://www.w3.org/2000/svg">
<g filter="url(#filter0_d)">
<circle cx="46" cy="42" r="42" fill="#282828"/>
</g>
<path d="M48.0588 31.043L55.4005 25.2419" stroke="#16EB96" stroke-miterlimit="10" stroke-linecap="round" stroke-linejoin="round"/>
<path d="M37.3861 25.0747L44.8259 30.953" stroke="#16EB96" stroke-miterlimit="10" stroke-linecap="round" stroke-linejoin="round"/>
<path d="M55.2669 36.9292L48.1766 33.1648" stroke="#16EB96" stroke-miterlimit="10" stroke-linecap="round" stroke-linejoin="round"/>
<path d="M57.1022 44.5128V39.8008" stroke="#16EB96" stroke-miterlimit="10" stroke-linecap="round" stroke-linejoin="round"/>
<path d="M48.2983 50.9764L55.2041 47.3953" stroke="#16EB96" stroke-miterlimit="10" stroke-linecap="round" stroke-linejoin="round"/>
<path d="M37.7957 47.3953L44.8153 51.0353" stroke="#16EB96" stroke-miterlimit="10" stroke-linecap="round" stroke-linejoin="round"/>
<path d="M35.8979 39.8008V44.5128" stroke="#16EB96" stroke-miterlimit="10" stroke-linecap="round" stroke-linejoin="round"/>
<path d="M44.7396 33.2092L37.5747 37.0129" stroke="#16EB96" stroke-miterlimit="10" stroke-linecap="round" stroke-linejoin="round"/>
<path d="M47.9884 53.085L55.6127 59.1085" stroke="#16EB96" stroke-miterlimit="10" stroke-linecap="round" stroke-linejoin="round"/>
<path d="M37.3861 59.1085L45.0118 53.085" stroke="#16EB96" stroke-miterlimit="10" stroke-linecap="round" stroke-linejoin="round"/>
<path d="M35.8979 25.7958C36.9461 25.7958 37.7958 24.9461 37.7958 23.8979C37.7958 22.8497 36.9461 22 35.8979 22C34.8497 22 34 22.8497 34 23.8979C34 24.9461 34.8497 25.7958 35.8979 25.7958Z" stroke="#16EB96" stroke-miterlimit="10" stroke-linecap="round" stroke-linejoin="round"/>
<path d="M57.1021 25.7958C58.1503 25.7958 59 24.9461 59 23.8979C59 22.8497 58.1503 22 57.1021 22C56.0539 22 55.2042 22.8497 55.2042 23.8979C55.2042 24.9461 56.0539 25.7958 57.1021 25.7958Z" stroke="#16EB96" stroke-miterlimit="10" stroke-linecap="round" stroke-linejoin="round"/>
<path d="M35.8979 62.1833C36.9461 62.1833 37.7958 61.3335 37.7958 60.2854C37.7958 59.2372 36.9461 58.3875 35.8979 58.3875C34.8497 58.3875 34 59.2372 34 60.2854C34 61.3335 34.8497 62.1833 35.8979 62.1833Z" stroke="#16EB96" stroke-miterlimit="10" stroke-linecap="round" stroke-linejoin="round"/>
<path d="M46.5002 53.8063C47.5484 53.8063 48.3981 52.9566 48.3981 51.9084C48.3981 50.8602 47.5484 50.0105 46.5002 50.0105C45.452 50.0105 44.6023 50.8602 44.6023 51.9084C44.6023 52.9566 45.452 53.8063 46.5002 53.8063Z" stroke="#16EB96" stroke-miterlimit="10" stroke-linecap="round" stroke-linejoin="round"/>
<path d="M46.5002 34.1725C47.5484 34.1725 48.3981 33.3228 48.3981 32.2746C48.3981 31.2264 47.5484 30.3767 46.5002 30.3767C45.452 30.3767 44.6023 31.2264 44.6023 32.2746C44.6023 33.3228 45.452 34.1725 46.5002 34.1725Z" stroke="#16EB96" stroke-miterlimit="10" stroke-linecap="round" stroke-linejoin="round"/>
<path d="M35.8979 48.3088C36.9461 48.3088 37.7958 47.459 37.7958 46.4108C37.7958 45.3627 36.9461 44.5129 35.8979 44.5129C34.8497 44.5129 34 45.3627 34 46.4108C34 47.459 34.8497 48.3088 35.8979 48.3088Z" stroke="#16EB96" stroke-miterlimit="10" stroke-linecap="round" stroke-linejoin="round"/>
<path d="M57.1021 48.3088C58.1503 48.3088 59 47.459 59 46.4108C59 45.3627 58.1503 44.5129 57.1021 44.5129C56.0539 44.5129 55.2042 45.3627 55.2042 46.4108C55.2042 47.459 56.0539 48.3088 57.1021 48.3088Z" stroke="#16EB96" stroke-miterlimit="10" stroke-linecap="round" stroke-linejoin="round"/>
<path d="M35.8979 39.8009C36.9461 39.8009 37.7958 38.9512 37.7958 37.903C37.7958 36.8548 36.9461 36.0051 35.8979 36.0051C34.8497 36.0051 34 36.8548 34 37.903C34 38.9512 34.8497 39.8009 35.8979 39.8009Z" stroke="#16EB96" stroke-miterlimit="10" stroke-linecap="round" stroke-linejoin="round"/>
<path d="M57.1021 39.8009C58.1503 39.8009 59 38.9512 59 37.903C59 36.8548 58.1503 36.0051 57.1021 36.0051C56.0539 36.0051 55.2042 36.8548 55.2042 37.903C55.2042 38.9512 56.0539 39.8009 57.1021 39.8009Z" stroke="#16EB96" stroke-miterlimit="10" stroke-linecap="round" stroke-linejoin="round"/>
<path d="M59 60.2854C59 61.3338 58.1506 62.1833 57.1021 62.1833C56.0537 62.1833 55.2042 61.3338 55.2042 60.2854C55.2042 59.8403 55.3574 59.432 55.6126 59.1087C55.9608 58.6689 56.4987 58.3875 57.1021 58.3875C58.1506 58.3875 59 59.2369 59 60.2854Z" stroke="#16EB96" stroke-miterlimit="10" stroke-linecap="round" stroke-linejoin="round"/>
<defs>
<filter id="filter0_d" x="0" y="0" width="92" height="92" filterUnits="userSpaceOnUse" color-interpolation-filters="sRGB">
<feFlood flood-opacity="0" result="BackgroundImageFix"/>
<feColorMatrix in="SourceAlpha" type="matrix" values="0 0 0 0 0 0 0 0 0 0 0 0 0 0 0 0 0 0 127 0"/>
<feOffset dy="4"/>
<feGaussianBlur stdDeviation="2"/>
<feColorMatrix type="matrix" values="0 0 0 0 0 0 0 0 0 0 0 0 0 0 0 0 0 0 0.25 0"/>
<feBlend mode="normal" in2="BackgroundImageFix" result="effect1_dropShadow"/>
<feBlend mode="normal" in="SourceGraphic" in2="effect1_dropShadow" result="shape"/>
</filter>
</defs>
</svg>
