<svg id="Layer_1" data-name="Layer 1" xmlns="http://www.w3.org/2000/svg" viewBox="0 0 368.5 123.33"><polygon points="123.28 77.49 158.94 77.49 158.94 69.39 131.79 69.39 131.79 51.55 158.13 51.55 158.13 43.45 131.79 43.45 131.79 26.43 158.94 26.43 158.94 18.32 123.28 18.32 123.28 77.49" fill="#fff"/><path d="M167.88,77.49H176v-23a9,9,0,0,1,8.92-8.59c5.35,0,7.86,2.92,8.1,8.11v23.5h8.11V54c0-8.92-5.67-15.4-15.4-15.4-3.24,0-7.29,1.62-8.92,4l-.4.4-.41-.4-.81-3.24h-7.29Z" fill="#fff"/><polygon points="222.57 66.63 213.25 39.4 205.14 39.4 218.92 77.49 226.22 77.49 239.99 39.4 231.89 39.4 222.57 66.63" fill="#fff"/><path d="M261.1,45.88c4.86,0,8.92,3.24,9.32,7.46H251C252.18,49.12,255.43,45.88,261.1,45.88Zm17,14.59.81-2.43c0-11.75-8.1-19.45-17.83-19.45-10.54,0-18.64,8.1-18.64,19.85S251,78.3,261.1,78.3a18.58,18.58,0,0,0,16.61-9.73l-6.8-3.24c-1.22,3.24-4.54,5.68-9.4,5.68-6.89,0-10.95-4.87-10.95-10.54Z" fill="#fff"/><path d="M315,58.44C315,65.33,310.12,71,303.24,71c-7.7,0-11.84-5.68-11.84-12.57s4.14-12.56,11.84-12.56C310.12,45.88,315,51.55,315,58.44Zm7.29-42.55h-8.1V42.64l-.41.4-.4-.4a15.59,15.59,0,0,0-10.54-4c-10.54,0-19.45,8.1-19.45,19.85s8.91,19.86,19.45,19.86a15.44,15.44,0,0,0,10.54-4l.4-.41.41.41.81,3.24h7.29Z" fill="#fff"/><path d="M361.21,58.44c0,6.89-4.86,12.57-11.75,12.57-7.7,0-11.84-5.68-11.84-12.57s4.14-12.56,11.84-12.56C356.35,45.88,361.21,51.55,361.21,58.44Zm7.29-19h-7.29l-.81,3.24L360,43l-.4-.4a15.42,15.42,0,0,0-10.54-4c-10.53,0-19.45,8.1-19.45,19.85s8.92,19.86,19.45,19.86a15.42,15.42,0,0,0,10.54-4l.4-.41.41.41.81,3.24h7.29Z" fill="#fff"/><path d="M129.91,116.77h3.36a13,13,0,0,0,1.48-.09,4.55,4.55,0,0,0,1.47-.39,3,3,0,0,0,1.1-.87,2.59,2.59,0,0,0,.44-1.57,2.32,2.32,0,0,0-1.07-2.19,6.7,6.7,0,0,0-3.28-.62h-3.5Zm0-8.76h3.33a4.58,4.58,0,0,0,2.72-.67,2.19,2.19,0,0,0,.93-1.83,2.11,2.11,0,0,0-1-1.91,5.39,5.39,0,0,0-3-.64h-3Zm-3.65-8.08h8a9.27,9.27,0,0,1,2.29.28,5.48,5.48,0,0,1,2,.87,4.35,4.35,0,0,1,2,3.84,4,4,0,0,1-1,2.78,5.46,5.46,0,0,1-2.57,1.57v.06a5,5,0,0,1,1.76.53,4.53,4.53,0,0,1,2.32,2.5,4.47,4.47,0,0,1,.35,1.77,5.1,5.1,0,0,1-.67,2.72,5.32,5.32,0,0,1-1.76,1.74,7.82,7.82,0,0,1-2.5.93,14.76,14.76,0,0,1-2.83.28h-7.39Z" fill="#fff"/><rect x="150.46" y="99.93" width="3.65" height="19.87" fill="#fff"/><path d="M166.83,109.72a8.49,8.49,0,0,0,.49,3,7.12,7.12,0,0,0,1.45,2.33,6.72,6.72,0,0,0,2.2,1.54,7.76,7.76,0,0,0,5.79,0A6.54,6.54,0,0,0,179,115a6.73,6.73,0,0,0,1.42-2.33,8.06,8.06,0,0,0,.52-3,7.31,7.31,0,0,0-.52-2.78A6.44,6.44,0,0,0,179,104.7a6.23,6.23,0,0,0-2.23-1.52,7.76,7.76,0,0,0-5.79,0,6.38,6.38,0,0,0-2.2,1.52,6.81,6.81,0,0,0-1.45,2.24A7.7,7.7,0,0,0,166.83,109.72ZM163,110a11.14,11.14,0,0,1,.81-4.33,9.74,9.74,0,0,1,2.23-3.34,9.93,9.93,0,0,1,3.42-2.1,12.12,12.12,0,0,1,4.37-.76,12.43,12.43,0,0,1,4.4.7,9.58,9.58,0,0,1,3.45,2.08,9.74,9.74,0,0,1,2.26,3.31,11.09,11.09,0,0,1,.81,4.32,10.72,10.72,0,0,1-.81,4.24,9.86,9.86,0,0,1-2.26,3.29,10.86,10.86,0,0,1-3.45,2.16,12.89,12.89,0,0,1-4.4.78,12.56,12.56,0,0,1-4.37-.73,10.24,10.24,0,0,1-3.42-2.1,9.83,9.83,0,0,1-2.23-3.29A10.7,10.7,0,0,1,163,110Z" fill="#fff"/><path d="M203.79,104.19a3.34,3.34,0,0,0-1.57-1.18,5.32,5.32,0,0,0-2-.39,5.68,5.68,0,0,0-1.24.14,3.38,3.38,0,0,0-1.07.45,2.56,2.56,0,0,0-.76.81,2.23,2.23,0,0,0-.29,1.15,1.82,1.82,0,0,0,.73,1.55,7.3,7.3,0,0,0,1.79.92c.72.27,1.5.52,2.35.76a10.1,10.1,0,0,1,2.35,1,5.72,5.72,0,0,1,1.79,1.71,5,5,0,0,1,.73,2.84,6.25,6.25,0,0,1-.61,2.81,5.8,5.8,0,0,1-1.65,2,7.08,7.08,0,0,1-2.38,1.18,10.36,10.36,0,0,1-2.87.39,10.8,10.8,0,0,1-3.67-.62,7,7,0,0,1-3-2.07L195.1,115a4.67,4.67,0,0,0,1.73,1.54,5.36,5.36,0,0,0,2.32.53,4.69,4.69,0,0,0,1.28-.17,4,4,0,0,0,1.15-.5,2.8,2.8,0,0,0,.84-.84,2.26,2.26,0,0,0,.32-1.21,2,2,0,0,0-.72-1.68,6.15,6.15,0,0,0-1.8-1,24.65,24.65,0,0,0-2.34-.78,11,11,0,0,1-2.35-1,5.89,5.89,0,0,1-1.79-1.69,4.89,4.89,0,0,1-.73-2.83,5.28,5.28,0,0,1,.64-2.67,5.83,5.83,0,0,1,1.71-1.85,7.31,7.31,0,0,1,2.43-1.12,10.41,10.41,0,0,1,2.78-.37,10.29,10.29,0,0,1,3.13.48,7.35,7.35,0,0,1,2.75,1.57Z" fill="#fff"/><path d="M229.94,104.59a6.07,6.07,0,0,0-2.2-1.58,6,6,0,0,0-2.11-.39,7.35,7.35,0,0,0-2.9.56,6.38,6.38,0,0,0-2.2,1.52,6.81,6.81,0,0,0-1.45,2.24,7.93,7.93,0,0,0-.49,2.78,8.73,8.73,0,0,0,.49,3,7.12,7.12,0,0,0,1.45,2.33,6.72,6.72,0,0,0,2.2,1.54,7.18,7.18,0,0,0,2.9.56,5.35,5.35,0,0,0,2.4-.56,6.59,6.59,0,0,0,2.2-1.85l3,2.08a8.21,8.21,0,0,1-3.39,2.69,10.86,10.86,0,0,1-4.26.84,12.56,12.56,0,0,1-4.37-.73,10.24,10.24,0,0,1-3.42-2.1,9.83,9.83,0,0,1-2.23-3.29,10.7,10.7,0,0,1-.81-4.23,11.14,11.14,0,0,1,.81-4.33,9.74,9.74,0,0,1,2.23-3.34,9.93,9.93,0,0,1,3.42-2.1,12.12,12.12,0,0,1,4.37-.76,9.93,9.93,0,0,1,3.85.73,8.79,8.79,0,0,1,3.33,2.41Z" fill="#fff"/><rect x="241.11" y="99.93" width="3.65" height="19.87" fill="#fff"/><polygon points="254.76 99.93 268.35 99.93 268.35 103.13 258.41 103.13 258.41 108.01 267.82 108.01 267.82 111.21 258.41 111.21 258.41 116.6 268.87 116.6 268.87 119.8 254.76 119.8 254.76 99.93" fill="#fff"/><polygon points="277.97 99.93 282.81 99.93 292.74 114.69 292.8 114.69 292.8 99.93 296.45 99.93 296.45 119.8 291.81 119.8 281.68 104.56 281.62 104.56 281.62 119.8 277.97 119.8 277.97 99.93" fill="#fff"/><path d="M320.6,104.59a6.15,6.15,0,0,0-2.2-1.58,6,6,0,0,0-2.12-.39,7.3,7.3,0,0,0-2.89.56,6.29,6.29,0,0,0-2.2,1.52,6.81,6.81,0,0,0-1.45,2.24,7.7,7.7,0,0,0-.49,2.78,8.49,8.49,0,0,0,.49,3,7.12,7.12,0,0,0,1.45,2.33,6.62,6.62,0,0,0,2.2,1.54,7.13,7.13,0,0,0,2.89.56,5.39,5.39,0,0,0,2.41-.56,6.69,6.69,0,0,0,2.2-1.85l3,2.08a8.21,8.21,0,0,1-3.39,2.69,10.86,10.86,0,0,1-4.26.84,12.56,12.56,0,0,1-4.37-.73,10.44,10.44,0,0,1-3.42-2.1,10,10,0,0,1-2.23-3.29,10.7,10.7,0,0,1-.81-4.23,11.14,11.14,0,0,1,.81-4.33,9.89,9.89,0,0,1,2.23-3.34,10.12,10.12,0,0,1,3.42-2.1,12.12,12.12,0,0,1,4.37-.76,9.94,9.94,0,0,1,3.86.73,9,9,0,0,1,3.33,2.41Z" fill="#fff"/><polygon points="331.85 99.93 345.44 99.93 345.44 103.13 335.5 103.13 335.5 108.01 344.92 108.01 344.92 111.21 335.5 111.21 335.5 116.6 345.96 116.6 345.96 119.8 331.85 119.8 331.85 99.93" fill="#fff"/><path d="M365.11,104.19a3.36,3.36,0,0,0-1.56-1.18,5.35,5.35,0,0,0-2-.39,5.77,5.77,0,0,0-1.25.14,3.48,3.48,0,0,0-1.07.45,2.43,2.43,0,0,0-.75.81,2.23,2.23,0,0,0-.29,1.15,1.81,1.81,0,0,0,.72,1.55,7.57,7.57,0,0,0,1.8.92c.71.27,1.5.52,2.35.76a9.85,9.85,0,0,1,2.34,1,5.75,5.75,0,0,1,1.8,1.71,5,5,0,0,1,.72,2.84,6.12,6.12,0,0,1-.61,2.81,5.59,5.59,0,0,1-1.65,2,7,7,0,0,1-2.37,1.18,10.41,10.41,0,0,1-2.87.39,10.9,10.9,0,0,1-3.68-.62,7.07,7.07,0,0,1-3-2.07l2.75-2.58a4.78,4.78,0,0,0,1.74,1.54,5.33,5.33,0,0,0,2.32.53,4.62,4.62,0,0,0,1.27-.17,4,4,0,0,0,1.16-.5,2.8,2.8,0,0,0,.84-.84,2.35,2.35,0,0,0,.32-1.21,2,2,0,0,0-.73-1.68,6.22,6.22,0,0,0-1.79-1c-.72-.28-1.5-.54-2.35-.78a10.67,10.67,0,0,1-2.34-1,5.81,5.81,0,0,1-1.8-1.69,5,5,0,0,1-.72-2.83,5.38,5.38,0,0,1,.63-2.67,6.06,6.06,0,0,1,1.71-1.85,7.46,7.46,0,0,1,2.44-1.12,10.35,10.35,0,0,1,2.78-.37,10.17,10.17,0,0,1,3.12.48,7.39,7.39,0,0,1,2.76,1.57Z" fill="#fff"/><path d="M39.81,104.33a2.19,2.19,0,0,1-2.21-2.2V42.57a2.2,2.2,0,0,1,1.17-2L72.64,22.54,39.71,4.72,3.26,24.5a2.21,2.21,0,1,1-2.1-3.88L38.66.27a2.18,2.18,0,0,1,2.1,0l37.6,20.35a2.21,2.21,0,0,1,0,3.89L42,43.89V98.44L76.27,80.17a2.21,2.21,0,0,1,2.08,3.9l-37.5,20A2.14,2.14,0,0,1,39.81,104.33Z" fill="#16eb96"/><path d="M39.71,123.33a2.21,2.21,0,0,1-2.21-2.21V103.45L1.17,84.07A2.22,2.22,0,0,1,0,82.12V22.56a2.22,2.22,0,0,1,1.07-1.9,2.25,2.25,0,0,1,2.18-.05l37.5,20a2.2,2.2,0,0,1,1.17,2v78.55A2.21,2.21,0,0,1,39.71,123.33ZM4.42,80.79,37.5,98.44V43.89L4.42,26.24Z" fill="#16eb96"/><path d="M39.81,104.33a2.19,2.19,0,0,1-2.21-2.2V42.57a2.2,2.2,0,0,1,1.17-2l37.5-20a2.21,2.21,0,1,1,2.08,3.9L42,43.89V98.44L76.27,80.17a2.21,2.21,0,0,1,2.08,3.9l-37.5,20A2.14,2.14,0,0,1,39.81,104.33Z" fill="#fff"/><path d="M39.81,74.55a2.2,2.2,0,0,1-1-4.15l37.5-20a2.21,2.21,0,0,1,2.08,3.9l-37.5,20A2.17,2.17,0,0,1,39.81,74.55Z" fill="#fff"/><path d="M39.71,104.33a2.2,2.2,0,0,1-2.21-2.2V42.57a2.21,2.21,0,0,1,4.42,0v59.56A2.2,2.2,0,0,1,39.71,104.33Z" fill="#fff"/></svg>