<svg width="92" height="92" viewBox="0 0 92 92" fill="none" xmlns="http://www.w3.org/2000/svg">
<g filter="url(#filter0_d)">
<circle cx="46" cy="42" r="42" fill="#282828"/>
</g>
<path d="M61.1547 24.008L55.1108 27.1868L43.0079 20.7994L49.0101 17.7527L61.1547 24.008Z" stroke="#16EB96" stroke-miterlimit="10" stroke-linecap="round" stroke-linejoin="round"/>
<path d="M61.1546 24.0081V33.8075L55.1106 36.9864L43.0078 30.599V20.7996" stroke="#16EB96" stroke-miterlimit="10" stroke-linecap="round" stroke-linejoin="round"/>
<path d="M55.1106 27.1868V37.0545" stroke="#16EB96" stroke-miterlimit="10" stroke-linecap="round" stroke-linejoin="round"/>
<path d="M31.0692 52.5153L37.1132 55.6942L49.216 49.3067L43.2138 46.26L31.0692 52.5153Z" stroke="#16EB96" stroke-miterlimit="10" stroke-linecap="round" stroke-linejoin="round"/>
<path d="M31.0692 52.5152V62.3146L37.1132 65.4935L49.216 59.106V49.3066" stroke="#16EB96" stroke-miterlimit="10" stroke-linecap="round" stroke-linejoin="round"/>
<path d="M37.1132 55.6943V65.4136" stroke="#16EB96" stroke-miterlimit="10" stroke-linecap="round" stroke-linejoin="round"/>
<path d="M37.113 40.1948V49.3068" stroke="#16EB96" stroke-miterlimit="10" stroke-linecap="round" stroke-linejoin="round"/>
<path d="M30.8453 36.9861L37.1131 40.1946" stroke="#16EB96" stroke-miterlimit="10" stroke-linecap="round" stroke-linejoin="round"/>
<path d="M37.113 40.1947L43.0749 37.0544" stroke="#16EB96" stroke-miterlimit="10" stroke-linecap="round" stroke-linejoin="round"/>
<path d="M30.8453 30.7502L37.1131 33.9588" stroke="#16EB96" stroke-miterlimit="10" stroke-linecap="round" stroke-linejoin="round"/>
<path d="M37.113 33.9586L43.0749 30.8184" stroke="#16EB96" stroke-miterlimit="10" stroke-linecap="round" stroke-linejoin="round"/>
<path d="M37.0952 24.4341L37.1131 40.1948" stroke="#16EB96" stroke-miterlimit="10" stroke-linecap="round" stroke-linejoin="round"/>
<path d="M55.1703 46.4633V37.3513" stroke="#16EB96" stroke-miterlimit="10" stroke-linecap="round" stroke-linejoin="round"/>
<path d="M48.9026 49.6722L55.1704 46.4636" stroke="#16EB96" stroke-miterlimit="10" stroke-linecap="round" stroke-linejoin="round"/>
<path d="M55.1703 46.4634L61.1322 49.6036" stroke="#16EB96" stroke-miterlimit="10" stroke-linecap="round" stroke-linejoin="round"/>
<path d="M49.6307 55.4656L55.1703 52.6995" stroke="#16EB96" stroke-miterlimit="10" stroke-linecap="round" stroke-linejoin="round"/>
<path d="M55.1703 52.6995L61.1322 55.8397" stroke="#16EB96" stroke-miterlimit="10" stroke-linecap="round" stroke-linejoin="round"/>
<path d="M55.1525 60.4424L55.1704 46.4634" stroke="#16EB96" stroke-miterlimit="10" stroke-linecap="round" stroke-linejoin="round"/>
<path d="M37.0877 23.8403C38.6125 23.8403 39.8485 22.6105 39.8485 21.0935C39.8485 19.5765 38.6125 18.3467 37.0877 18.3467C35.563 18.3467 34.3269 19.5765 34.3269 21.0935C34.3269 22.6105 35.563 23.8403 37.0877 23.8403Z" stroke="#16EB96" stroke-miterlimit="10" stroke-linecap="round" stroke-linejoin="round"/>
<path d="M55.145 66.0073C56.6697 66.0073 57.9058 64.7775 57.9058 63.2605C57.9058 61.7435 56.6697 60.5137 55.145 60.5137C53.6202 60.5137 52.3842 61.7435 52.3842 63.2605C52.3842 64.7775 53.6202 66.0073 55.145 66.0073Z" stroke="#16EB96" stroke-miterlimit="10" stroke-linecap="round" stroke-linejoin="round"/>
<defs>
<filter id="filter0_d" x="0" y="0" width="92" height="92" filterUnits="userSpaceOnUse" color-interpolation-filters="sRGB">
<feFlood flood-opacity="0" result="BackgroundImageFix"/>
<feColorMatrix in="SourceAlpha" type="matrix" values="0 0 0 0 0 0 0 0 0 0 0 0 0 0 0 0 0 0 127 0"/>
<feOffset dy="4"/>
<feGaussianBlur stdDeviation="2"/>
<feColorMatrix type="matrix" values="0 0 0 0 0 0 0 0 0 0 0 0 0 0 0 0 0 0 0.25 0"/>
<feBlend mode="normal" in2="BackgroundImageFix" result="effect1_dropShadow"/>
<feBlend mode="normal" in="SourceGraphic" in2="effect1_dropShadow" result="shape"/>
</filter>
</defs>
</svg>
